<svg xmlns="http://www.w3.org/2000/svg" viewBox="0 0 720 820"><defs><linearGradient id="b" x2="1" y2="1"><stop stop-color="#160e22"/><stop offset=".48" stop-color="#4b173f"/><stop offset="1" stop-color="#090a15"/></linearGradient><radialGradient id="s"><stop stop-color="#dba98f"/><stop offset="1" stop-color="#74473f"/></radialGradient><linearGradient id="r" x2="1"><stop stop-color="#c04f9a"/><stop offset=".55" stop-color="#7b3fbd"/><stop offset="1" stop-color="#291640"/></linearGradient></defs><rect width="720" height="820" rx="54" fill="url(#b)"/><circle cx="555" cy="150" r="120" fill="#ff9bd9" opacity=".1"/><path d="M72 820c42-204 162-280 288-280s246 76 288 280" fill="url(#r)"/><path d="M270 558c19-53 42-79 90-79s71 26 90 79" fill="#dba98e"/><ellipse cx="360" cy="351" rx="167" ry="204" fill="url(#s)"/><path d="M190 345C176 192 246 91 363 92c123 1 192 105 166 253-46-36-76-87-93-148-62 70-140 103-246 108z" fill="#090a12"/><path d="M214 263c35-112 89-158 154-158 74 0 134 49 159 143-61-43-113-60-169-56-39 37-83 58-144 71z" fill="#12111a"/><path d="M270 351q30-17 59 0M392 351q29-17 58 0" fill="none" stroke="#302039" stroke-width="9" stroke-linecap="round"/><circle cx="301" cy="357" r="7" fill="#100d17"/><circle cx="419" cy="357" r="7" fill="#100d17"/><path d="M316 429q44 30 88 0" fill="none" stroke="#7d4655" stroke-width="8" stroke-linecap="round"/><path d="M235 414c18-18 35-18 53 0-18 18-35 18-53 0zM432 414c18-18 35-18 53 0-18 18-35 18-53 0z" fill="none" stroke="#e5bd59" stroke-width="5"/><circle cx="555" cy="108" r="25" fill="none" stroke="#f1c85c" stroke-width="4"/><path d="M555 80v56M527 108h56" stroke="#f1c85c" stroke-width="4"/></svg>